<?xml version="1.0" ?>
<!DOCTYPE svg  PUBLIC '-//W3C//DTD SVG 1.1//EN'
  'http://www.w3.org/Graphics/SVG/1.1/DTD/svg11.dtd' [
	<!ENTITY stroke_color "#000000">
	<!ENTITY fill_color "#FFFFFF">
]>
<svg
   xmlns:dc="http://purl.org/dc/elements/1.1/"
   xmlns:cc="http://creativecommons.org/ns#"
   xmlns:rdf="http://www.w3.org/1999/02/22-rdf-syntax-ns#"
   xmlns:svg="http://www.w3.org/2000/svg"
   xmlns="http://www.w3.org/2000/svg"
   xmlns:sodipodi="http://sodipodi.sourceforge.net/DTD/sodipodi-0.dtd"
   xmlns:inkscape="http://www.inkscape.org/namespaces/inkscape"
   width="48px"
   height="48px"
   id="svg2995"
   version="1.1"
   inkscape:version="0.48.4 r9939"
   sodipodi:docname="icon.svg">
  <defs
     id="defs2997" />
  <sodipodi:namedview
     id="base"
     pagecolor="#ffffff"
     bordercolor="#666666"
     borderopacity="1.0"
     inkscape:pageopacity="0.0"
     inkscape:pageshadow="2"
     inkscape:zoom="7"
     inkscape:cx="7.5714286"
     inkscape:cy="24"
     inkscape:current-layer="layer2"
     showgrid="true"
     inkscape:grid-bbox="true"
     inkscape:document-units="px"
     inkscape:window-width="1238"
     inkscape:window-height="658"
     inkscape:window-x="75"
     inkscape:window-y="75"
     inkscape:window-maximized="0" />
  <metadata
     id="metadata3000">
    <rdf:RDF>
      <cc:Work
         rdf:about="">
        <dc:format>image/svg+xml</dc:format>
        <dc:type
           rdf:resource="http://purl.org/dc/dcmitype/StillImage" />
        <dc:title></dc:title>
      </cc:Work>
    </rdf:RDF>
  </metadata>
  <g
     inkscape:groupmode="layer"
     id="layer2"
     inkscape:label="Layer1">
    <path
	   style="fill:&fill_color;;stroke:&stroke_color;;stroke-opacity:1"
       d="M 25.285714,0.57142857 1.2857143,5.8571429"
       id="path2984"
       inkscape:connector-curvature="0" />
    <path
	   style="fill:&fill_color;;stroke:&stroke_color;;stroke-opacity:1"
       d="M 1.7142857,5.7142857 9.2857143,12.857143 8.4285714,23.571429 3.5714286,25 l -0.2857143,9 6.8571427,5.428571 0,2.714286 L 18.428571,48 l 10,-0.142857 8,-5.571429 L 36.285714,38.857143 45,33.428571 45.142857,26.714286 41,23.857143 39.714286,12 l 8,-7 -22.857143,-4.57142857"
       id="path2986"
       inkscape:connector-curvature="0" />
    <path
	   style="fill:&fill_color;;stroke:&stroke_color;;stroke-opacity:1"
       d="M 9.1428571,12.285714 16.571429,4.5714286 22,4.5714286 23.142857,6.7142857 27,6.5714286 l 1.571429,-1.7142857 4.142857,-0.4285715 7,7.1428576"
       id="path2988"
       inkscape:connector-curvature="0" />
    <path
	   style="fill:&fill_color;;stroke:&stroke_color;;stroke-opacity:1"
       d="m 29,13.714286 -3.428571,4.714285 0,5.857143 4,4 L 33,28.571429 l 4.714286,-3.857143 0,-6.571429 -4,-4.571428 z"
       id="path2990"
       inkscape:connector-curvature="0" />
    <path
	   style="fill:&fill_color;;stroke:&stroke_color;;stroke-opacity:1"
       d="m 19.714286,13.571429 -4,0 -3.857143,4.857142 -0.285714,6.714286 5.142857,3.714286 L 20.571429,29 l 3,-4.285714 0.142857,-5.285715 z"
       id="path2992"
       inkscape:connector-curvature="0" />
    <path
	   style="fill:&fill_color;;stroke:&stroke_color;;stroke-opacity:1"
       d="M 17.428571,21.571429 16,22.857143 l 1.714286,2 1.714285,-1.428572 z"
       id="path2994"
       inkscape:connector-curvature="0" />
    <path
	   style="fill:&fill_color;;stroke:&stroke_color;;stroke-opacity:1"
       d="m 32.142857,21.428571 -2,1.571429 1.714286,1.428571 L 34,23 z"
       id="path2996"
       inkscape:connector-curvature="0" />
    <path
	   style="fill:&fill_color;;stroke:&stroke_color;;stroke-opacity:1"
       d="m 31.571429,32.428571 2.142857,0.285715 1.571428,1.571428 0,2.857143"
       id="path2998"
       inkscape:connector-curvature="0" />
    <path
	   style="fill:&fill_color;;stroke:&stroke_color;;stroke-opacity:1"
       d="m 17.428571,33.285714 -1.714285,0 -2.142857,2 -0.142858,2.857143"
       id="path3000"
       inkscape:connector-curvature="0" />
    <path
	   style="fill:&fill_color;;stroke:&stroke_color;;stroke-opacity:1"
       d="m 40.285714,5.7142857 7,6.8571433 0,11.428571"
       id="path3002"
       inkscape:connector-curvature="0" />
  </g>
</svg>
